<svg xmlns="http://www.w3.org/2000/svg" xmlns:xlink="http://www.w3.org/1999/xlink" width="750" height="424" version="1.1" viewBox="0 0 750 424"><title>RPA Ecosystem v4</title><desc>Created with Sketch.</desc><defs><linearGradient id="linearGradient-1" x1="0%" x2="100%" y1="50%" y2="50%"><stop offset="0%" stop-color="#FF1F00"/><stop offset="100%" stop-color="#FF8B00"/></linearGradient><linearGradient id="linearGradient-2" x1="0%" x2="100%" y1="50%" y2="50%"><stop offset="0%" stop-color="#FF1F00"/><stop offset="100%" stop-color="#FF8B00"/></linearGradient><linearGradient id="linearGradient-3" x1="0%" x2="100%" y1="50%" y2="50%"><stop offset="0%" stop-color="#FF1F00"/><stop offset="100%" stop-color="#FF8B00"/></linearGradient></defs><g id="RPA-Ecosystem-v4" fill="none" fill-rule="evenodd" stroke="none" stroke-width="1"><rect width="750" height="424" x="0" y="0" fill="#FFF"/><line id="Line-3" x1="1.5" x2="430.5" y1="287.5" y2="287.5" stroke="#939598" stroke-dasharray="5 10" stroke-linecap="square"/><g id="Group-2" transform="translate(30.000000, 95.000000)"><rect id="Rectangle" width="340" height="60" x="0" y="0" fill="url(#linearGradient-1)"/><text id="Camunda-Process-&amp;-De" fill="#FFF" font-family="IBMPlexSans-Bold, IBM Plex Sans" font-size="12" font-weight="bold"><tspan x="68.242" y="34">Camunda Process &amp; Decision Engine</tspan></text></g><g id="Group-2-Copy-5" transform="translate(491.000000, 95.000000)"><rect id="Rectangle" width="230" height="60" x="0" y="0" fill="url(#linearGradient-2)"/><text id="Camunda-Modeler" fill="#FFF" font-family="IBMPlexSans-Bold, IBM Plex Sans" font-size="12" font-weight="bold"><tspan x="64.254" y="34">Camunda Modeler</tspan></text></g><g id="Group-2-Copy-6" transform="translate(491.000000, 199.000000)"><rect id="Rectangle" width="230" height="60" x="0" y="0" fill="url(#linearGradient-2)"/><text id="Cawemo-Catalog" fill="#FFF" font-family="IBMPlexSans-Bold, IBM Plex Sans" font-size="12" font-weight="bold"><tspan x="68.184" y="34">Cawemo Catalog</tspan></text></g><g id="Group-7" transform="translate(30.000000, 200.000000)"><g id="Group-2-Copy" transform="translate(0.000000, 0.000000)"><rect id="Rectangle" width="244" height="60" x="0" y="0" fill="url(#linearGradient-3)"/><text id="Camunda-RPA-Bridge" fill="#FFF" font-family="IBMPlexSans-Bold, IBM Plex Sans" font-size="12" font-weight="bold"><tspan x="62.68" y="34">Camunda RPA Bridge</tspan></text></g><g id="Group-Copy-3" transform="translate(260.000000, 0.000000)"><rect id="Rectangle" width="80" height="28" x="0" y="0" fill="#E6E7E8" stroke="#FB4716" rx="14"/><text id="UiPath-Bridge-Config" fill="#000" font-family="IBMPlexSans, IBM Plex Sans" font-size="9" font-weight="normal" line-spacing="6"><tspan x="26.608" y="14">UiPath</tspan> <tspan x="13" y="26">Bridge Config</tspan></text></g><g id="Group-Copy-8" transform="translate(260.000000, 32.000000)"><rect id="Rectangle" width="80" height="28" x="0" y="0" fill="#E6E7E8" stroke="#234F8D" rx="14"/><text id="Autom.-Anyw.-Bridge" fill="#000" font-family="IBMPlexSans, IBM Plex Sans" font-size="9" font-weight="normal" line-spacing="6"><tspan x="12.5" y="14">Autom. Anyw.</tspan> <tspan x="13.427" y="26">Bridge Config</tspan></text></g><path id="Line-Copy" fill="#58595B" fill-rule="nonzero" d="M252.5,9.5 L252.5,13.5 L259.5,13.5 L259.5,14.5 L252.5,14.5 L252.5,18.5 L243.5,14 L252.5,9.5 Z"/><path id="Line-Copy-3" fill="#58595B" fill-rule="nonzero" d="M252.5,41.5 L252.5,45.5 L259.5,45.5 L259.5,46.5 L252.5,46.5 L252.5,50.5 L243.5,46 L252.5,41.5 Z"/></g><g id="Group-6" transform="translate(30.000000, 311.000000)"><g id="Group-5"><g id="Group-2-Copy-3" transform="translate(3.000000, 0.000000)"><rect id="Rectangle" width="60" height="100" x="0" y="0" fill="#E6E7E8" stroke="#FB4716"/><text id="UiPath-Bot" fill="#000" font-family="ArialMT, Arial" font-size="12" font-weight="normal"><tspan x="12.366" y="44">UiPath </tspan> <tspan x="21.369" y="64">Bot</tspan></text></g><g id="Group-2-Copy-2" transform="translate(0.000000, 3.000000)"><rect id="Rectangle" width="60" height="100" x="0" y="0" fill="#E6E7E8" stroke="#FB4716"/><text id="UiPath" fill="#000" font-family="IBMPlexSans, IBM Plex Sans" font-size="12" font-weight="normal"><tspan x="12.138" y="55">UiPath</tspan></text></g><g id="Group-4" transform="translate(76.000000, 3.000000)"><rect id="Rectangle-Copy" width="80" height="100" x="0" y="0" fill="#FFF" stroke="#979797" rx="14"/><g id="Group-Copy-3" transform="translate(5.000000, 4.000000)"><rect id="Rectangle" width="70" height="40" x="0" y="0" fill="#E6E7E8" stroke="#FB4716" rx="14"/><text id="UiPath-Package-1" fill="#000" font-family="IBMPlexSans, IBM Plex Sans" font-size="12" font-weight="normal" line-spacing="10"><tspan x="17.714" y="19">UiPath</tspan> <tspan x="8" y="35">Package 1</tspan></text></g><text id="…" fill="#000" font-family="ArialMT, Arial" font-size="12" font-weight="normal" line-spacing="10"><tspan x="34.5" y="51">…</tspan></text><g id="Group-Copy-4" transform="translate(5.000000, 56.000000)"><rect id="Rectangle" width="70" height="40" x="0" y="0" fill="#E6E7E8" stroke="#FB4716" rx="14"/><text id="UiPath-Package-N" fill="#000" font-family="IBMPlexSans, IBM Plex Sans" font-size="12" font-weight="normal" line-spacing="10"><tspan x="17.356" y="19">UiPath</tspan> <tspan x="7" y="35">Package N</tspan></text></g></g><path id="Line-Copy" fill="#4A4A4A" fill-rule="nonzero" d="M69,49 L68.999,53 L76,53 L76,54 L68.999,54 L69,58 L60,53.5 L69,49 Z"/></g><g id="Group-5-Copy" transform="translate(184.000000, 0.000000)"><g id="Group-2-Copy-4" transform="translate(3.000000, 0.000000)"><rect id="Rectangle" width="60" height="100" x="0" y="0" fill="#E6E7E8" stroke="#234F8D"/><text id="UiPath-Bot" fill="#000" font-family="ArialMT, Arial" font-size="12" font-weight="normal"><tspan x="12.366" y="44">UiPath </tspan> <tspan x="21.369" y="64">Bot</tspan></text></g><g id="Group-2-Copy-2" transform="translate(0.000000, 3.000000)"><rect id="Rectangle" width="60" height="100" x="0" y="0" fill="#E6E7E8" stroke="#234F8D"/><text id="Auto--mation-Anywher" fill="#000" font-family="IBMPlexSans, IBM Plex Sans" font-size="12" font-weight="normal"><tspan x="14.85" y="29">Auto-</tspan> <tspan x="11.184" y="44">mation </tspan> <tspan x="3.024" y="59">Anywhere </tspan> <tspan x="8.148" y="80">RPA Bot</tspan></text></g><g id="Group-4" transform="translate(76.000000, 3.000000)"><rect id="Rectangle-Copy" width="80" height="100" x="0" y="0" fill="#FFF" stroke="#939598" rx="14"/><g id="Group-Copy-3" transform="translate(5.000000, 4.000000)"><rect id="Rectangle" width="70" height="40" x="0" y="0" fill="#E6E7E8" stroke="#234F8D" rx="14"/><text id="AA-Script-1" fill="#000" font-family="IBMPlexSans, IBM Plex Sans" font-size="12" font-weight="normal" line-spacing="10"><tspan x="27.99" y="19">AA</tspan> <tspan x="15" y="35">Script 1</tspan></text></g><text id="…" fill="#000" font-family="ArialMT, Arial" font-size="12" font-weight="normal" line-spacing="10"><tspan x="34.5" y="51">…</tspan></text><g id="Group-Copy-4" transform="translate(5.000000, 56.000000)"><rect id="Rectangle" width="70" height="40" x="0" y="0" fill="#E6E7E8" stroke="#234F8D" rx="14"/><text id="AA-Script-N" fill="#000" font-family="IBMPlexSans, IBM Plex Sans" font-size="12" font-weight="normal" line-spacing="10"><tspan x="28.132" y="19">AA</tspan> <tspan x="14.5" y="35">Script N</tspan></text></g></g><path id="Line-Copy" fill="#4A4A4A" fill-rule="nonzero" d="M69,49 L69,53 L76,53 L76,54 L69,54 L69,58 L60,53.5 L69,49 Z"/></g></g><g id="Group-8" transform="translate(30.000000, 10.000000)"><rect id="Rectangle" width="340" height="60" x="0" y="0" fill="#FFF" stroke="#939598" rx="14"/><g id="Group" transform="translate(24.000000, 5.000000)"><rect id="Rectangle" width="130" height="51" x="0" y="0" fill="#E6E7E8" rx="14"/><text id="Process-&amp;-Decision-I" fill="#000" font-family="IBMPlexSans, IBM Plex Sans" font-size="12" font-weight="normal" line-spacing="10"><tspan x="14" y="25">Process &amp; Decision</tspan> <tspan x="27.578" y="41">Instance Data</tspan></text></g><g id="Group-Copy-2" transform="translate(186.000000, 5.000000)"><rect id="Rectangle" width="130" height="51" x="0" y="0" fill="#E6E7E8" rx="14"/><text id="Process-&amp;-Decision-D" fill="#000" font-family="IBMPlexSans, IBM Plex Sans" font-size="12" font-weight="normal" line-spacing="10"><tspan x="14" y="25">Process &amp; Decision</tspan> <tspan x="36.29" y="41">Definitions</tspan></text></g></g><g id="Group-3" transform="translate(138.000000, 155.000000)"><line id="Line-2" x1="12.5" x2="12.5" y1=".5" y2="44.5" stroke="#58595B" stroke-linecap="square"/><circle id="Oval" cx="12.5" cy="22.5" r="3.5" fill="#FFF" stroke="#58595B"/><polygon id="Triangle" fill="#58595B" points="3 19 6 26 0 26"/></g><g id="Group-3-Copy-4" transform="translate(431.000000, 130.500000) rotate(90.000000) translate(-431.000000, -130.500000) translate(423.000000, 70.000000)"><line id="Line-2" x1="3.5" x2="3.5" y1=".5" y2="120.5" stroke="#58595B" stroke-linecap="square"/><circle id="Oval" cx="3.5" cy="60.5" r="3.5" fill="#FFF" stroke="#58595B"/><polygon id="Triangle" fill="#58595B" points="13 57 16 64 10 64" transform="translate(13.000000, 60.500000) scale(1, -1) translate(-13.000000, -60.500000)"/></g><g id="Group-3-Copy-3" transform="translate(594.000000, 155.000000)"><line id="Line-2" x1="12.5" x2="12.5" y1=".5" y2="43.5" stroke="#58595B" stroke-linecap="square"/><circle id="Oval" cx="12.5" cy="22.5" r="3.5" fill="#FFF" stroke="#58595B"/><polygon id="Triangle" fill="#58595B" points="3 19 6 26 0 26" transform="translate(3.000000, 22.500000) scale(1, -1) translate(-3.000000, -22.500000)"/></g><g id="Group-3-Copy" transform="translate(48.000000, 260.000000)"><line id="Line-2" x1="12.5" x2="12.5" y1=".5" y2="53.5" stroke="#58595B" stroke-linecap="square"/><circle id="Oval" cx="12.5" cy="27.5" r="3.5" fill="#FFF" stroke="#58595B"/><polygon id="Triangle" fill="#58595B" points="3 24 6 31 0 31" transform="translate(3.000000, 27.500000) scale(1, -1) translate(-3.000000, -27.500000)"/></g><g id="Group-3-Copy-2" transform="translate(232.000000, 261.000000)"><line id="Line-2" x1="12.5" x2="12.5" y1="0" y2="53" stroke="#58595B" stroke-linecap="square"/><circle id="Oval" cx="12.5" cy="26.5" r="3.5" fill="#FFF" stroke="#58595B"/><polygon id="Triangle" fill="#58595B" points="3 23 6 30 0 30" transform="translate(3.000000, 26.500000) scale(1, -1) translate(-3.000000, -26.500000)"/></g><g id="Group-4-Copy-2" transform="translate(491.000000, 284.000000)"><rect id="Rectangle-Copy" width="230" height="100" x="0" y="0" fill="#FFF" stroke="#939598" rx="14"/><g id="Group-Copy-3" transform="translate(6.000000, 4.000000)"><rect id="Rectangle" width="90" height="40" x="0" y="0" fill="#E6E7E8" stroke="#FB4716" rx="14"/><text id="UiPath-Pkg-1-Task-Te" fill="#000" font-family="IBMPlexSans, IBM Plex Sans" font-size="12" font-weight="normal" line-spacing="10"><tspan x="11.782" y="19">UiPath Pkg 1</tspan> <tspan x="7" y="35">Task Template</tspan></text></g><g id="Group-Copy-6" transform="translate(114.000000, 4.000000)"><rect id="Rectangle" width="110" height="40" x="0" y="0" fill="#E6E7E8" stroke="#234F8D" rx="14"/><text id="AA-Script-1-Task-Tem" fill="#000" font-family="IBMPlexSans, IBM Plex Sans" font-size="12" font-weight="normal" line-spacing="10"><tspan x="26.012" y="19">AA Script 1</tspan> <tspan x="17" y="35">Task Template</tspan></text></g><g id="Group-Copy-5" transform="translate(6.000000, 56.000000)"><rect id="Rectangle" width="90" height="40" x="0" y="0" fill="#E6E7E8" stroke="#FB4716" rx="14"/><text id="UiPath-Pkg-N-Task-Te" fill="#000" font-family="IBMPlexSans, IBM Plex Sans" font-size="12" font-weight="normal" line-spacing="10"><tspan x="11.14" y="19">UiPath Pkg N</tspan> <tspan x="7" y="35">Task Template</tspan></text></g><g id="Group-Copy-7" transform="translate(114.000000, 56.000000)"><rect id="Rectangle" width="110" height="40" x="0" y="0" fill="#E6E7E8" stroke="#234F8D" rx="14"/><text id="AA-Script-N-Task-Tem" fill="#000" font-family="IBMPlexSans, IBM Plex Sans" font-size="12" font-weight="normal" line-spacing="10"><tspan x="25.37" y="19">AA Script N</tspan> <tspan x="17" y="35">Task Template</tspan></text></g><text id="…" fill="#000" font-family="ArialMT, Arial" font-size="12" font-weight="normal" line-spacing="10"><tspan x="45" y="51">…</tspan></text><text id="…" fill="#000" font-family="ArialMT, Arial" font-size="12" font-weight="normal" line-spacing="10"><tspan x="163" y="51">…</tspan></text></g><path id="Line" fill="#58595B" fill-rule="nonzero" d="M200.5,70 L205,79 L201,79 L201,87 L205,87 L200.5,96 L196,87 L200,87 L200,79 L196,79 L200.5,70 Z"/><text id="Deploy" fill="#000" font-family="ArialMT, Arial" font-size="9" font-weight="normal" line-spacing="6"><tspan x="418" y="116">Deploy</tspan></text><text id="Fetch-tasks-for-exec" fill="#000" font-family="ArialMT, Arial" font-size="9" font-weight="normal" line-spacing="6"><tspan x="161" y="182">Fetch tasks for execution</tspan></text><text id="Load-templates" fill="#000" font-family="IBMPlexSans, IBM Plex Sans" font-size="9" font-weight="normal" line-spacing="6"><tspan x="617" y="183">Load templates</tspan></text><g id="Group-Copy-2" transform="translate(541.000000, 19.000000)"><rect id="Rectangle" width="130" height="51" x="0" y="0" fill="#E6E7E8" rx="14"/><text id="Process-&amp;-Decision-D" fill="#000" font-family="IBMPlexSans, IBM Plex Sans" font-size="12" font-weight="normal" line-spacing="10"><tspan x="14" y="25">Process &amp; Decision</tspan> <tspan x="39.776" y="41">Diagrams</tspan></text></g><path id="Line-Copy-4" fill="#58595B" fill-rule="nonzero" d="M606.5,70 L611,79 L607,79 L607,87 L611,87 L606.5,96 L602,87 L606,87 L606,79 L602,79 L606.5,70 Z"/><path id="Line-Copy-2" fill="#58595B" fill-rule="nonzero" d="M606.5,259 L611,268 L607,268 L607,276 L611,276 L606.5,285 L602,276 L606,276 L606,268 L602,268 L606.5,259 Z"/></g></svg>